<?xml version="1.0" encoding="UTF-8"?>
<svg width="357px" height="63px" viewBox="0 0 357 63" version="1.1" xmlns="http://www.w3.org/2000/svg" xmlns:xlink="http://www.w3.org/1999/xlink">
    <title>Group</title>
    <g id="Page-1" stroke="none" stroke-width="1" fill="none" fill-rule="evenodd">
        <g id="Group">
            <g id="icon">
                <g id="149554435016276585043773" fill="#3F51B5" fill-rule="nonzero">
                    <path d="M59.3699,11.1 C59.5557,10.9142 59.7031,10.6936 59.8037,10.4508 C59.9042,10.208 59.956,9.9478 59.956,9.685 C59.956,9.4222 59.9042,9.162 59.8037,8.9192 C59.7031,8.6764 59.5557,8.4558 59.3699,8.27 C59.1841,8.0842 58.9635,7.9368 58.7207,7.8362 C58.4779,7.7356 58.2177,7.6839 57.9549,7.6839 C57.6921,7.6839 57.4319,7.7356 57.1891,7.8362 C56.9463,7.9368 56.7257,8.0842 56.5399,8.27 L51.8499,13 C48.4773,10.2224 44.3498,8.5192 39.9999,8.11 L39.9999,4 L43.9999,4 C44.5303,4 45.039,3.78929 45.4141,3.41421 C45.7892,3.03914 45.9999,2.53043 45.9999,2 C45.9999,1.46957 45.7892,0.96086 45.4141,0.58579 C45.039,0.21071 44.5303,0 43.9999,0 L31.9999,0 C31.4695,0 30.9607,0.21071 30.5857,0.58579 C30.2106,0.96086 29.9999,1.46957 29.9999,2 C29.9999,2.53043 30.2106,3.03914 30.5857,3.41421 C30.9607,3.78929 31.4695,4 31.9999,4 L35.9999,4 L35.9999,8.12 C8.2999,11.56 9.9999,51 37.9999,52.0002143 C56.6699,52.08 66.8499,29.74 54.7399,15.76 L59.3699,11.1 Z" id="Shape"></path>
                    <path d="M18,12 C18.5304,12 19.0391,11.7893 19.4142,11.4142 C19.7893,11.0391 20,10.5304 20,10 C20,9.4696 19.7893,8.9609 19.4142,8.5858 C19.0391,8.2107 18.5304,8 18,8 L2,8 C1.46957,8 0.96086,8.2107 0.58579,8.5858 C0.21071,8.9609 0,9.4696 0,10 C0,10.5304 0.21071,11.0391 0.58579,11.4142 C0.96086,11.7893 1.46957,12 2,12 L18,12 Z" id="Path"></path>
                    <path d="M2,22 L11.9,22 C12.4304,22 12.9391,21.7893 13.3142,21.4142 C13.6893,21.0391 13.9,20.5304 13.9,20 C13.9,19.4696 13.6893,18.9609 13.3142,18.5858 C12.9391,18.2107 12.4304,18 11.9,18 L2,18 C1.46957,18 0.96086,18.2107 0.58579,18.5858 C0.21071,18.9609 -8.8817842e-16,19.4696 -8.8817842e-16,20 C-8.8817842e-16,20.5304 0.21071,21.0391 0.58579,21.4142 C0.96086,21.7893 1.46957,22 2,22 L2,22 Z" id="Path"></path>
                    <path d="M2,32 L10.31,32 C10.8404,32 11.3491,31.7893 11.7242,31.4142 C12.0993,31.0391 12.31,30.5304 12.31,30 C12.31,29.4696 12.0993,28.9609 11.7242,28.5858 C11.3491,28.2107 10.8404,28 10.31,28 L2,28 C1.46957,28 0.96086,28.2107 0.58579,28.5858 C0.21071,28.9609 8.8817842e-16,29.4696 8.8817842e-16,30 C8.8817842e-16,30.5304 0.21071,31.0391 0.58579,31.4142 C0.96086,31.7893 1.46957,32 2,32 L2,32 Z" id="Path"></path>
                    <path d="M2,42 L11.9,42 C12.4304,42 12.9391,41.7893 13.3142,41.4142 C13.6893,41.0391 13.9,40.5304 13.9,40 C13.9,39.4696 13.6893,38.9609 13.3142,38.5858 C12.9391,38.2107 12.4304,38 11.9,38 L2,38 C1.46957,38 0.96086,38.2107 0.58579,38.5858 C0.21071,38.9609 -8.8817842e-16,39.4696 -8.8817842e-16,40 C-8.8817842e-16,40.5304 0.21071,41.0391 0.58579,41.4142 C0.96086,41.7893 1.46957,42 2,42 L2,42 Z" id="Path"></path>
                    <path d="M18,48 L2,48 C1.46957,48 0.96086,48.2107 0.58579,48.5858 C0.21071,48.9609 0,49.4696 0,50 C0,50.5304 0.21071,51.0391 0.58579,51.4142 C0.96086,51.7893 1.46957,52 2,52 L18,52 C18.5304,52 19.0391,51.7893 19.4142,51.4142 C19.7893,51.0391 20,50.5304 20,50 C20,49.4696 19.7893,48.9609 19.4142,48.5858 C19.0391,48.2107 18.5304,48 18,48 Z" id="Path"></path>
                </g>
                <g id="16637757611556280998" transform="translate(23.000000, 15.000000)">
                    <polygon id="Path" points="0 0 29 0 29 29 0 29"></polygon>
                    <path d="M11.1742763,19.1222664 L7.03222919,14.9831014 C6.56669651,14.5178926 5.81468218,14.5178926 5.34914951,14.9831014 C4.88361683,15.4483101 4.88361683,16.1998012 5.34914951,16.6650099 L10.3387049,21.6510934 C10.8042375,22.1163022 11.5562519,22.1163022 12.0217845,21.6510934 L24.6508505,9.03081511 C25.1163832,8.56560636 25.1163832,7.81411531 24.6508505,7.34890656 C24.1853178,6.88369781 23.4333035,6.88369781 22.9677708,7.34890656 L11.1742763,19.1222664 Z" id="🔹-Icon-Color" fill="#E8EAF6" fill-rule="nonzero"></path>
                </g>
            </g>
            <text id="Timed-Tasks" font-family="RobotoSlab-ExtraBold, Roboto Slab" font-size="48" font-weight="700">
                <tspan x="70" y="50" fill="#3F51B5">Timed</tspan>
                <tspan x="213.648438" y="50" font-family="RobotoSlab-Medium, Roboto Slab" font-weight="500" fill="#3F51B5"> </tspan>
                <tspan x="225.484375" y="50" font-family="RobotoSlab-Light, Roboto Slab" font-weight="400" fill="#3F51B5">Tasks</tspan>
            </text>
        </g>
    </g>
</svg>